<?xml version="1.0" encoding="utf-8"?>
<!-- Generator: Adobe Illustrator 26.1.0, SVG Export Plug-In . SVG Version: 6.00 Build 0)  -->
<svg version="1.1" id="Layer_1" xmlns="http://www.w3.org/2000/svg" xmlns:xlink="http://www.w3.org/1999/xlink" x="0px" y="0px"
	 viewBox="0 0 129 28" style="enable-background:new 0 0 129 28;" xml:space="preserve">
<style type="text/css">
	.st0{fill-rule:evenodd;clip-rule:evenodd;fill:#333232;}
	.st1{opacity:0.428;fill:#FFFFFF;enable-background:new    ;}
	.st2{fill:#FFFFFF;}
	.st3{fill:#333232;}
</style>
<g>
	<g>
		<circle class="st0" cx="14" cy="14" r="14"/>
		<g>
			<path class="st1" d="M12.6,4.1L12.6,4.1c0.1,0,0.2,0.1,0.2,0.2l0,0.2l0.2,0c0.1,0,0.2,0.1,0.2,0.2v0c0,0.1-0.1,0.2-0.2,0.2
				l-0.2,0l0,0.2c0,0.1-0.1,0.2-0.2,0.2l0,0c-0.1,0-0.2-0.1-0.2-0.2l0-0.2l-0.2,0c-0.1,0-0.2-0.1-0.2-0.2v0c0-0.1,0.1-0.2,0.2-0.2
				l0.2,0l0-0.2C12.4,4.2,12.5,4.1,12.6,4.1z"/>
			<path class="st1" d="M18.9,4.8L18.9,4.8C19,4.8,19,5,18.9,5.1l-0.1,0.2L19,5.4c0.1,0.1,0.1,0.2,0,0.3l0,0c-0.1,0.1-0.2,0.1-0.3,0
				l-0.2-0.1l-0.1,0.2c-0.1,0.1-0.2,0.1-0.3,0v0c-0.1-0.1-0.1-0.2,0-0.3l0.1-0.2l-0.2-0.1C18,5.1,18,5,18,4.9v0
				c0.1-0.1,0.2-0.1,0.3,0L18.5,5l0.1-0.2C18.7,4.7,18.8,4.7,18.9,4.8z"/>
			<path class="st1" d="M22.7,13.2L22.7,13.2c0.1,0,0.2,0.1,0.2,0.2l0,0.2l0.2,0c0.1,0,0.2,0.1,0.2,0.2l0,0c0,0.1-0.1,0.2-0.2,0.2
				l-0.2,0l0,0.2c0,0.1-0.1,0.2-0.2,0.2l0,0c-0.1,0-0.2-0.1-0.2-0.2l0-0.2l-0.2,0c-0.1,0-0.2-0.1-0.2-0.2l0,0c0-0.1,0.1-0.2,0.2-0.2
				l0.2,0l0-0.2C22.5,13.3,22.6,13.2,22.7,13.2z"/>
			<path class="st1" d="M5.3,9L5.3,9c0.1,0.1,0.1,0.2,0,0.2L5.2,9.3l0.1,0.1c0.1,0.1,0.1,0.1,0,0.2l0,0c-0.1,0.1-0.1,0.1-0.2,0
				L5,9.5L4.9,9.6c-0.1,0.1-0.1,0.1-0.2,0l0,0c-0.1-0.1-0.1-0.2,0-0.2l0.1-0.1L4.7,9.2C4.7,9.1,4.6,9,4.7,9v0c0.1-0.1,0.1-0.1,0.2,0
				L5,9.1L5.1,9C5.2,8.9,5.3,8.9,5.3,9z"/>
			<path class="st1" d="M9.7,13.3L9.7,13.3c0.1,0,0.2,0.1,0.2,0.2l0,0.2l0.2,0c0.1,0,0.2,0.1,0.2,0.2v0c0,0.1-0.1,0.2-0.2,0.2
				l-0.2,0l0,0.2c0,0.1-0.1,0.2-0.2,0.2l0,0c-0.1,0-0.2-0.1-0.2-0.2l0-0.2l-0.2,0c-0.1,0-0.2-0.1-0.2-0.2v0c0-0.1,0.1-0.2,0.2-0.2
				l0.2,0l0-0.2C9.5,13.4,9.6,13.3,9.7,13.3z"/>
			<path class="st1" d="M6.8,20.2L6.8,20.2c0.2,0,0.3,0.2,0.3,0.3l0,0.4l0.3,0c0.2,0,0.3,0.1,0.3,0.3v0c0,0.2-0.2,0.3-0.3,0.3
				l-0.3,0l0,0.4c0,0.2-0.1,0.3-0.3,0.3h0c-0.2,0-0.4-0.1-0.4-0.3l0-0.4l-0.3,0c-0.2,0-0.3-0.1-0.3-0.3l0,0c0-0.2,0.1-0.3,0.3-0.3
				l0.3,0l0-0.4C6.4,20.4,6.6,20.3,6.8,20.2z"/>
			<path class="st1" d="M15.3,22.9L15.3,22.9c0.1,0.1,0.1,0.2,0,0.3l-0.1,0.2l0.2,0.1c0.1,0.1,0.1,0.2,0,0.3l0,0
				c-0.1,0.1-0.2,0.1-0.3,0L15,23.6l-0.1,0.2c-0.1,0.1-0.2,0.1-0.3,0l0,0c-0.1-0.1-0.1-0.2,0-0.3l0.1-0.2l-0.2-0.1
				c-0.1-0.1-0.1-0.2,0-0.3l0,0c0.1-0.1,0.2-0.1,0.3,0l0.2,0.1l0.1-0.2C15.1,22.8,15.2,22.8,15.3,22.9z"/>
			<path class="st2" d="M5.6,5.8L5.6,5.8c0.1,0.1,0.1,0.2,0,0.3L5.5,6.3l0.2,0.1c0.1,0.1,0.1,0.2,0,0.3l0,0c-0.1,0.1-0.2,0.1-0.3,0
				L5.3,6.6L5.1,6.8C5.1,6.8,5,6.9,4.9,6.8l0,0c-0.1-0.1-0.1-0.2,0-0.3L5,6.3L4.8,6.2C4.7,6.1,4.7,6,4.8,5.9v0C4.8,5.9,5,5.8,5,5.9
				L5.2,6l0.1-0.2C5.4,5.8,5.5,5.8,5.6,5.8z"/>
			<path class="st2" d="M10.6,5.7L10.6,5.7c0.2,0,0.3,0.1,0.3,0.3l0,0.3l0.3,0c0.2,0,0.3,0.1,0.3,0.3v0c0,0.2-0.1,0.3-0.3,0.3
				l-0.3,0l0,0.4c0,0.2-0.1,0.3-0.3,0.3h0c-0.2,0-0.3-0.1-0.3-0.3l0-0.4L9.9,7C9.8,7,9.6,6.9,9.6,6.7v0c0-0.2,0.1-0.3,0.3-0.3l0.3,0
				l0-0.3C10.3,5.8,10.4,5.7,10.6,5.7z"/>
			<path class="st2" d="M11.9,10.3L11.9,10.3c0.1,0,0.2,0.1,0.2,0.2l0,0.2l0.2,0c0.1,0,0.1,0.1,0.1,0.1l0,0c0,0.1-0.1,0.1-0.1,0.1
				l-0.2,0l0,0.2c0,0.1-0.1,0.1-0.1,0.2l0,0c-0.1,0-0.2-0.1-0.2-0.2l0-0.2l-0.1,0c-0.1,0-0.1-0.1-0.1-0.1v0c0-0.1,0.1-0.1,0.1-0.1
				l0.2,0l0-0.2C11.7,10.4,11.8,10.3,11.9,10.3z"/>
			<path class="st2" d="M15.4,13.8L15.4,13.8c0.1,0.1,0.1,0.2,0,0.3l-0.1,0.2l0.2,0.1c0.1,0.1,0.1,0.2,0,0.3l0,0
				c-0.1,0.1-0.2,0.1-0.3,0L15,14.5l-0.1,0.2c-0.1,0.1-0.2,0.1-0.3,0l0,0c-0.1-0.1-0.1-0.2,0-0.3l0.2-0.2l-0.2-0.1
				c-0.1-0.1-0.1-0.2,0-0.3v0c0.1-0.1,0.2-0.1,0.3,0l0.2,0.1l0.1-0.2C15.1,13.7,15.3,13.7,15.4,13.8z"/>
			<path class="st2" d="M22.9,16.5L22.9,16.5c0.1,0.1,0.1,0.3,0,0.5l-0.3,0.2l0.2,0.2c0.1,0.1,0.1,0.3,0,0.4l0,0
				c-0.1,0.1-0.3,0.1-0.4,0l-0.2-0.2l-0.3,0.2c-0.1,0.1-0.3,0.1-0.4,0h0c-0.1-0.1-0.1-0.3,0-0.5l0.3-0.2l-0.2-0.2
				c-0.1-0.1-0.1-0.3,0-0.4l0,0c0.1-0.1,0.3-0.1,0.4,0l0.2,0.2l0.2-0.2C22.5,16.3,22.7,16.3,22.9,16.5z"/>
			<path class="st2" d="M13.5,18.3L13.5,18.3c0.1,0,0.2,0.1,0.2,0.2l0,0.2l0.2,0c0.1,0,0.2,0.1,0.2,0.2l0,0c0,0.1-0.1,0.2-0.2,0.2
				l-0.2,0l0,0.2c0,0.1-0.1,0.2-0.2,0.2l0,0c-0.1,0-0.2-0.1-0.2-0.2l0-0.2l-0.2,0c-0.1,0-0.2-0.1-0.2-0.2v0c0-0.1,0.1-0.2,0.2-0.2
				l0.2,0l0-0.2C13.3,18.4,13.4,18.3,13.5,18.3z"/>
			<path class="st2" d="M18.5,21.3L18.5,21.3c0.2,0,0.3,0.1,0.3,0.3l0,0.3l0.3,0c0.2,0,0.3,0.1,0.3,0.3v0c0,0.2-0.1,0.3-0.3,0.3
				l-0.3,0l0,0.4c0,0.2-0.1,0.3-0.3,0.3l0,0c-0.2,0-0.3-0.1-0.3-0.3l0-0.4l-0.3,0c-0.2,0-0.3-0.1-0.3-0.3l0,0c0-0.2,0.1-0.3,0.3-0.3
				l0.3,0l0-0.3C18.2,21.5,18.3,21.3,18.5,21.3z"/>
			<g>
				<rect x="7.3" y="4.7" transform="matrix(0.1089 -0.9941 0.9941 0.1089 0.3424 13.3908)" class="st2" width="0.8" height="3.6"/>
			</g>
			<g>
				
					<rect x="10.8" y="7.9" transform="matrix(0.9492 -0.3147 0.3147 0.9492 -2.2779 3.9669)" class="st2" width="0.8" height="2.3"/>
			</g>
			<g>
				
					<rect x="12.7" y="11.2" transform="matrix(0.7013 -0.7129 0.7129 0.7013 -5.1315 13.1354)" class="st2" width="0.8" height="3.1"/>
			</g>
			<g>
				
					<rect x="18" y="13.1" transform="matrix(0.3755 -0.9268 0.9268 0.3755 -3.4094 27.0126)" class="st2" width="0.8" height="5.8"/>
			</g>
			<g>
				
					<rect x="18.4" y="19.5" transform="matrix(0.5749 -0.8182 0.8182 0.5749 -7.6721 25.0513)" class="st2" width="3.8" height="0.8"/>
			</g>
			<g>
				<polygon class="st2" points="17.2,22.1 14,19.7 14.4,19.1 17.6,21.5 				"/>
			</g>
			<g>
				<rect x="12.9" y="16.3" transform="matrix(0.31 -0.9507 0.9507 0.31 -5.9823 25.1158)" class="st2" width="2.8" height="0.7"/>
			</g>
		</g>
	</g>
	<g>
		<path class="st3" d="M52.8,20.6c0,0.1-0.1,0.2-0.3,0.3c-0.2,0.1-0.9,0.1-1.9,0.1c-1,0-1.6,0-1.9-0.1c-0.2,0-0.4-0.2-0.5-0.5
			c-0.2-1-0.4-1.5-0.6-1.6c-0.1,0-1-0.1-2.8-0.1c-1.2,0-1.8,0-1.9,0.1c-0.1,0.1-0.3,0.5-0.4,1.1c-0.1,0.6-0.3,0.9-0.5,0.9
			c-0.2,0.1-1,0.1-2.4,0.1c-1.1,0-1.6-0.1-1.6-0.3c0-0.2,0.8-2.4,2.4-6.7c1.7-4.6,2.6-7.2,2.8-7.6c0.1-0.3,0.2-0.4,0.3-0.4
			c0.2,0,0.5,0,0.9,0.1C44.8,6,45.1,6,45.2,6c0.2,0,0.5,0,0.8,0c0.4,0,0.6,0,0.8,0c0.1,0,0.3,0.1,0.4,0.3c0.3,0.7,1.3,3.2,3,7.5
			C51.9,18.1,52.8,20.4,52.8,20.6z M45.3,11c-0.1,0.3-0.4,1-0.7,2C44.2,14.1,44,14.8,44,15c0,0.1,0.2,0.2,0.6,0.2c0.2,0,0.6,0,1.1,0
			c0.5,0,0.7-0.1,0.8-0.2c0,0,0-0.1,0-0.1c0-0.2-0.2-0.9-0.5-1.9C45.7,12,45.5,11.3,45.3,11z"/>
		<path class="st3" d="M59.9,12.4c0,0.1-0.1,0.2-0.2,0.3c-0.2,0-0.4-0.1-0.6-0.1c-0.4,0-0.8,0.1-1,0.3c-0.3,0.2-0.5,0.5-0.5,0.9
			c0,0.2,0.2,0.6,0.5,0.9c0.5,0.6,0.9,0.9,1,1.1c0.4,0.5,0.5,1.1,0.5,1.7c0,0.4-0.1,0.7-0.2,1.1c-0.2,0.4-0.4,0.8-0.6,1
			c-0.5,0.4-1.1,0.8-1.8,1.1c-0.7,0.3-1.4,0.5-2.1,0.5c-0.1,0-0.5-0.4-0.9-1.1c-0.5-0.8-0.7-1.2-0.7-1.4c0-0.1,0-0.1,0.1-0.1
			c0.5-0.1,1-0.2,1.5-0.3c0.6-0.2,0.9-0.5,0.9-1c0-0.3-0.2-0.7-0.5-1.1c-0.6-0.7-1-1.1-1-1.1c-0.4-0.5-0.5-1-0.5-1.6
			c0-1,0.5-1.9,1.6-2.7c1-0.7,2-1,3-1c0.1,0,0.4,0.4,0.8,1.1C59.7,11.8,59.9,12.2,59.9,12.4z"/>
		<path class="st3" d="M68.4,17.8c0,0.2,0,0.5-0.1,1c-0.1,0.4-0.1,0.7-0.1,0.9s0,0.3-0.1,0.4c0,0.1-0.2,0.1-0.3,0.2
			c-0.9,0.5-1.9,0.7-3,0.7c-2,0-3-0.8-3-2.3c0-0.5,0-1.2,0.1-2.1s0.1-1.6,0.1-2.1c0-0.3-0.2-0.5-0.5-0.5c0,0-0.1,0-0.1,0
			c-0.1,0-0.1,0-0.1,0c-0.3,0-0.4-0.1-0.4-0.3c0-0.1,0-0.3,0-0.5s0-0.4,0-0.5c0-0.1,0-0.4,0-0.7c0-0.3,0-0.5,0-0.7
			c0-0.1,0.2-0.2,0.7-0.2c0.3,0,0.4-0.1,0.4-0.2c0-0.3,0.1-0.7,0-1.3c0-0.9,0-1.3,0-1.3c0-0.8,0.1-1.2,0.2-1.2c0.2,0,0.5,0,0.8,0.1
			c0.4,0.1,0.7,0.1,0.8,0.2c0.4,0,0.9,0.1,1.6,0.2c0.2,0,0.3,0.1,0.3,0.2c0,0.3,0,0.7-0.1,1.3c0,0.6-0.1,1-0.1,1.3
			c0,0.3,0.1,0.5,0.3,0.5c0.2,0,0.6,0,1.1,0c0.5,0,0.9,0,1.1,0c0.2,0,0.2,0.1,0.2,0.2c0,0.2,0,0.4-0.1,0.7s-0.1,0.6-0.1,0.7
			c0,0.2,0,0.4,0,0.7s0,0.6,0,0.7c0,0.1-0.1,0.2-0.3,0.2c-0.1,0-0.4,0-0.7,0c-0.3,0-0.6,0-0.7,0h-0.8c-0.1,0-0.2,0.2-0.2,0.5
			c0,0.2,0,0.4,0,0.7c0,0.3,0,0.6,0,0.7c0,0.6,0.1,1,0.2,1.2c0.2,0.3,0.6,0.5,1.1,0.5c0.2,0,0.4,0,0.7-0.1s0.6-0.1,0.7-0.1
			C68.3,17.5,68.4,17.6,68.4,17.8z"/>
		<path class="st3" d="M76.5,14.3c0,0.3-0.2,0.4-0.5,0.4c-0.1,0-0.3,0-0.6,0c-0.3,0-0.4,0-0.6,0c-0.6,0-1,0.1-1.2,0.3
			c-0.2,0.2-0.3,0.5-0.3,1.1c0,0.3,0,0.8,0,1.4c0,0.6,0,1.1,0,1.4c0,0.2,0,0.5,0,0.9c0,0.4,0,0.7,0,0.9c0,0.2-0.1,0.3-0.3,0.3
			c-0.3,0-0.8,0-1.5,0c-0.7,0-1.2,0-1.6-0.1c-0.2,0-0.3-0.1-0.3-0.3c0-0.6,0-1.4,0-2.5s0-2,0-2.5c0-1.6-0.2-3-0.5-4.1
			c0-0.1,0-0.1,0-0.2c0-0.1,0.1-0.2,0.2-0.2c0.4,0,0.9-0.1,1.7-0.2c1.1-0.2,1.7-0.3,1.7-0.3c0.1,0,0.2,0.2,0.2,0.7s0.1,0.7,0.2,0.7
			c-0.1,0,0.2-0.2,0.9-0.5c0.7-0.4,1.3-0.6,1.9-0.6c0.4,0,0.6,0.1,0.6,0.3c0,0.2,0,0.5-0.1,0.9c0,0.4-0.1,0.7-0.1,0.9
			c0,0.2,0,0.5,0,0.8C76.4,13.9,76.5,14.2,76.5,14.3z"/>
		<path class="st3" d="M87.8,15.7c0,1.6-0.5,2.9-1.5,3.9s-2.3,1.5-3.8,1.5c-1.5,0-2.8-0.5-3.8-1.5c-1-1-1.5-2.2-1.5-3.8
			c0-1.6,0.5-2.9,1.4-3.9c0.9-1,2.2-1.5,3.9-1.5c1.6,0,2.9,0.5,3.8,1.5C87.3,12.8,87.8,14.1,87.8,15.7z M84.3,15.7
			c0-0.6-0.2-1-0.5-1.5c-0.3-0.4-0.8-0.6-1.3-0.6c-0.6,0-1,0.2-1.4,0.6c-0.3,0.4-0.5,0.9-0.5,1.4c0,0.6,0.2,1.1,0.5,1.5
			c0.4,0.4,0.8,0.6,1.4,0.6c0.5,0,1-0.2,1.4-0.6C84.2,16.7,84.3,16.3,84.3,15.7z"/>
		<path class="st3" d="M92.8,14.5c0,1.9,0,3.4,0,4.4c0,0.2,0,0.4,0,0.8c0,0.4,0,0.6,0,0.8c0,0.1-0.1,0.2-0.3,0.3
			c-0.3,0.1-0.9,0.1-1.7,0.1c-0.8,0-1.4,0-1.6-0.1c-0.2,0-0.2-0.1-0.3-0.3c0,0,0-0.2,0-0.5c0-0.6,0-1.6,0-2.8c0-1.2,0-2.2,0-2.8
			c0-2.9,0-4.3,0-4c0-1.5-0.1-2.9-0.3-4c0-0.1,0-0.1,0-0.2c0-0.2,0.1-0.2,0.3-0.2h3.7c0.2,0,0.3,0.1,0.2,0.2l0,0.2
			C92.9,9.5,92.8,12.2,92.8,14.5z"/>
		<path class="st3" d="M104.8,15.7c0,1.6-0.5,2.9-1.5,3.9s-2.3,1.5-3.8,1.5c-1.5,0-2.8-0.5-3.8-1.5c-1-1-1.5-2.2-1.5-3.8
			c0-1.6,0.5-2.9,1.4-3.9c0.9-1,2.2-1.5,3.9-1.5c1.6,0,2.9,0.5,3.8,1.5C104.4,12.8,104.8,14.1,104.8,15.7z M101.4,15.7
			c0-0.6-0.2-1-0.5-1.5c-0.3-0.4-0.8-0.6-1.3-0.6c-0.6,0-1,0.2-1.4,0.6c-0.3,0.4-0.5,0.9-0.5,1.4c0,0.6,0.2,1.1,0.5,1.5
			c0.4,0.4,0.8,0.6,1.4,0.6c0.5,0,1-0.2,1.4-0.6C101.2,16.7,101.4,16.3,101.4,15.7z"/>
		<path class="st3" d="M116.6,18.1c0,2-0.4,3.4-1.3,4.3c-0.9,0.9-2.3,1.3-4.3,1.3c-0.6,0-1.4-0.1-2.4-0.3c-1.3-0.2-1.9-0.5-1.9-0.8
			c0-0.1,0.2-0.8,0.5-2.1c0-0.2,0.1-0.3,0.2-0.3c0,0,0.1,0,0.1,0c1.1,0.5,2.1,0.8,3,0.8c0.5,0,1-0.1,1.5-0.4
			c0.6-0.3,0.9-0.7,0.9-1.1v-0.7c-0.7,0.7-1.6,1-2.7,1c-1.3,0-2.4-0.5-3.2-1.4c-0.8-0.9-1.2-2-1.2-3.4c0-1.3,0.4-2.4,1.2-3.3
			c0.8-0.9,1.9-1.4,3.2-1.4c1.1,0,1.9,0.4,2.4,1.1c0.1,0.2,0.2,0.2,0.2,0.2c0.1,0,0.1-0.1,0.1-0.4c0-0.6,0.1-0.8,0.2-0.8
			c0.1,0,0.7,0.1,1.8,0.2s1.7,0.2,1.7,0.2c0.1,0,0.2,0.1,0.2,0.3c0,0.5,0,1.2,0,2.2s0,1.7,0,2.2c0,0.3,0,0.7,0,1.3
			S116.6,17.8,116.6,18.1z M112.9,15.2c0-0.5-0.2-1-0.5-1.3c-0.3-0.4-0.8-0.6-1.3-0.6c-0.5,0-0.9,0.2-1.3,0.6s-0.5,0.8-0.5,1.3
			c0,0.5,0.2,1,0.5,1.3s0.8,0.6,1.3,0.6c0.5,0,0.9-0.2,1.3-0.6S112.9,15.7,112.9,15.2z"/>
		<path class="st3" d="M128.7,13.4c0,1.4,0,2.2-0.1,2.5c-0.1,0.3-0.9,1.6-2.3,3.8c-0.2,0.3-0.8,1.1-1.7,2.4c-1,1.4-1.6,2.1-1.8,2.2
			c-0.2,0.1-1.2,0.2-3.2,0.2c-0.3,0-0.5,0-0.6-0.1c-0.1-0.3-0.2-0.6-0.3-1c-0.1-0.2-0.2-0.5-0.3-0.7c-0.2-0.4-0.2-0.6-0.2-0.7
			c0-0.1,0.1-0.2,0.2-0.2c1.9,0,2.9-0.4,2.9-1.3c0-0.1-0.5-0.8-1.4-2.1c-1-1.3-1.5-2.2-1.6-2.6c-0.1-0.2-0.1-0.9-0.1-2.2
			c0-0.3,0-0.6,0-1.1c0-0.5,0-0.9,0-1.1c0-0.2,0.1-0.3,0.3-0.3c0.4,0,0.9,0,1.6,0c0.7,0,1.3,0,1.6,0c0.1,0,0.2,0.1,0.2,0.3
			c0,0.2,0,0.5,0,0.9c0,0.4,0,0.7,0,0.9c0,0.9,0,1.5,0,1.8c0,0.2,0.2,0.7,0.6,1.4c0.4,0.7,0.7,1,0.9,1c0.2,0,0.4-0.3,0.8-1
			c0.4-0.6,0.5-1.1,0.6-1.3c0.1-0.6,0.1-1.3,0.1-2c0-0.2,0-0.5-0.1-0.9c0-0.4-0.1-0.7-0.1-0.9c0-0.1,0.1-0.2,0.2-0.2
			c0.4,0,0.9,0,1.6,0c0.7,0,1.2,0,1.6,0c0.2,0,0.3,0.1,0.4,0.3C128.6,11.5,128.7,12.2,128.7,13.4z"/>
	</g>
</g>
</svg>
