<?xml version="1.0" encoding="UTF-8"?><svg id="a" xmlns="http://www.w3.org/2000/svg" viewBox="0 0 129 28"><defs><style>.b,.c{fill:#fff;}.d{fill:#333232;}.c{font-family:BerlinSansFBDemi-Bold, Berlin Sans FB Demi;font-size:21.46px;}</style></defs><g><circle class="b" cx="13.99" cy="14" r="14"/><g><path class="d" d="M12.59,4.1h0c.1,0,.2,.1,.2,.2v.2h.2c.1,0,.2,.1,.2,.2h0c0,.1-.1,.2-.2,.2h-.2v.2c0,.1-.1,.2-.2,.2h0c-.1,0-.2-.1-.2-.2v-.2h-.2c-.1,0-.2-.1-.2-.2h0c0-.1,.1-.2,.2-.2h.2v-.2c0-.1,.1-.2,.2-.2Z"/><path class="d" d="M18.89,4.8h0c.1,0,.1,.2,0,.3l-.1,.2,.2,.1c.1,.1,.1,.2,0,.3h0c-.1,.1-.2,.1-.3,0l-.2-.1-.1,.2c-.1,.1-.2,.1-.3,0h0c-.1-.1-.1-.2,0-.3l.1-.2-.2-.1v-.3h0c.1-.1,.2-.1,.3,0l.2,.1,.1-.2c.1-.1,.2-.1,.3,0Z"/><path class="d" d="M22.69,13.2h0c.1,0,.2,.1,.2,.2v.2h.2c.1,0,.2,.1,.2,.2h0c0,.1-.1,.2-.2,.2h-.2v.2c0,.1-.1,.2-.2,.2h0c-.1,0-.2-.1-.2-.2v-.2h-.2c-.1,0-.2-.1-.2-.2h0c0-.1,.1-.2,.2-.2h.2v-.2c0-.1,.1-.2,.2-.2Z"/><path class="d" d="M5.29,9h0c.1,.1,.1,.2,0,.2l-.1,.1,.1,.1q.1,.1,0,.2h0q-.1,.1-.2,0l-.1-.1-.1,.1q-.1,.1-.2,0h0c-.1-.1-.1-.2,0-.2l.1-.1-.1-.1c0-.1-.1-.2,0-.2h0q.1-.1,.2,0l.1,.1,.1-.1c.1-.1,.2-.1,.2,0Z"/><path class="d" d="M9.69,13.3h0c.1,0,.2,.1,.2,.2v.2h.2c.1,0,.2,.1,.2,.2h0c0,.1-.1,.2-.2,.2h-.2v.2c0,.1-.1,.2-.2,.2h0c-.1,0-.2-.1-.2-.2v-.2h-.2c-.1,0-.2-.1-.2-.2h0c0-.1,.1-.2,.2-.2h.2v-.2c0-.1,.1-.2,.2-.2Z"/><path class="d" d="M6.79,20.2h0c.2,0,.3,.2,.3,.3v.4h.3c.2,0,.3,.1,.3,.3h0c0,.2-.2,.3-.3,.3h-.3v.4c0,.2-.1,.3-.3,.3h0c-.2,0-.4-.1-.4-.3v-.4h-.3c-.2,0-.3-.1-.3-.3h0c0-.2,.1-.3,.3-.3h.3v-.4c0-.1,.2-.2,.4-.3Z"/><path class="d" d="M15.29,22.9h0c.1,.1,.1,.2,0,.3l-.1,.2,.2,.1c.1,.1,.1,.2,0,.3h0c-.1,.1-.2,.1-.3,0l-.1-.2-.1,.2c-.1,.1-.2,.1-.3,0h0c-.1-.1-.1-.2,0-.3l.1-.2-.2-.1c-.1-.1-.1-.2,0-.3h0c.1-.1,.2-.1,.3,0l.2,.1,.1-.2s.1,0,.2,.1Z"/><path class="d" d="M5.59,5.8h0c.1,.1,.1,.2,0,.3l-.1,.2,.2,.1c.1,.1,.1,.2,0,.3h0c-.1,.1-.2,.1-.3,0l-.1-.1-.2,.2s-.1,.1-.2,0h0c-.1-.1-.1-.2,0-.3l.1-.2-.2-.1c-.1-.1-.1-.2,0-.3h0s.2-.1,.2,0l.2,.1,.1-.2h.3Z"/><path class="d" d="M10.59,5.7h0c.2,0,.3,.1,.3,.3v.3h.3c.2,0,.3,.1,.3,.3h0c0,.2-.1,.3-.3,.3h-.3v.4c0,.2-.1,.3-.3,.3h0c-.2,0-.3-.1-.3-.3v-.4l-.4,.1c-.1,0-.3-.1-.3-.3h0c0-.2,.1-.3,.3-.3h.3v-.3c.1-.3,.2-.4,.4-.4Z"/><path class="d" d="M11.89,10.3h0c.1,0,.2,.1,.2,.2v.2h.2c.1,0,.1,.1,.1,.1h0c0,.1-.1,.1-.1,.1h-.2v.2c0,.1-.1,.1-.1,.2h0c-.1,0-.2-.1-.2-.2v-.2h-.1c-.1,0-.1-.1-.1-.1h0c0-.1,.1-.1,.1-.1h.2v-.2c-.2-.1-.1-.2,0-.2Z"/><path class="d" d="M15.39,13.8h0c.1,.1,.1,.2,0,.3l-.1,.2,.2,.1c.1,.1,.1,.2,0,.3h0c-.1,.1-.2,.1-.3,0l-.2-.2-.1,.2c-.1,.1-.2,.1-.3,0h0c-.1-.1-.1-.2,0-.3l.2-.2-.2-.1c-.1-.1-.1-.2,0-.3h0c.1-.1,.2-.1,.3,0l.2,.1,.1-.2c-.1,0,.1,0,.2,.1Z"/><path class="d" d="M22.89,16.5h0c.1,.1,.1,.3,0,.5l-.3,.2,.2,.2c.1,.1,.1,.3,0,.4h0c-.1,.1-.3,.1-.4,0l-.2-.2-.3,.2c-.1,.1-.3,.1-.4,0h0c-.1-.1-.1-.3,0-.5l.3-.2-.2-.2c-.1-.1-.1-.3,0-.4h0c.1-.1,.3-.1,.4,0l.2,.2,.2-.2c.1-.2,.3-.2,.5,0Z"/><path class="d" d="M13.49,18.3h0c.1,0,.2,.1,.2,.2v.2h.2c.1,0,.2,.1,.2,.2h0c0,.1-.1,.2-.2,.2h-.2v.2c0,.1-.1,.2-.2,.2h0c-.1,0-.2-.1-.2-.2v-.2h-.2c-.1,0-.2-.1-.2-.2h0c0-.1,.1-.2,.2-.2h.2v-.2c0-.1,.1-.2,.2-.2Z"/><path class="d" d="M18.49,21.3h0c.2,0,.3,.1,.3,.3v.3h.3c.2,0,.3,.1,.3,.3h0c0,.2-.1,.3-.3,.3h-.3v.4c0,.2-.1,.3-.3,.3h0c-.2,0-.3-.1-.3-.3v-.4h-.3c-.2,0-.3-.1-.3-.3h0c0-.2,.1-.3,.3-.3h.3v-.3c0-.1,.1-.3,.3-.3Z"/><rect class="d" x="7.23" y="4.64" width=".8" height="3.6" transform="translate(.39 13.33) rotate(-83.75)"/><rect class="d" x="10.79" y="7.88" width=".8" height="2.3" transform="translate(-2.27 3.98) rotate(-18.34)"/><rect class="d" x="12.73" y="11.19" width=".8" height="3.1" transform="translate(-5.16 13.17) rotate(-45.47)"/><rect class="d" x="17.92" y="13.07" width=".8" height="5.8" transform="translate(-3.36 26.95) rotate(-67.94)"/><rect class="d" x="18.37" y="19.48" width="3.8" height=".8" transform="translate(-7.65 25.04) rotate(-54.91)"/><polygon class="d" points="17.19 22.1 13.99 19.7 14.39 19.1 17.59 21.5 17.19 22.1"/><rect class="d" x="12.87" y="16.33" width="2.8" height=".7" transform="translate(-6.02 25.07) rotate(-71.94)"/></g></g><text class="c" transform="translate(37.96 20.85)"><tspan x="0" y="0">Astrology</tspan></text></svg>