<?xml version="1.0" encoding="UTF-8"?><svg id="a" xmlns="http://www.w3.org/2000/svg" viewBox="0 0 129 28"><defs><style>.b{fill:#fff;}.c{fill:#333232;}</style></defs><g><circle class="b" cx="13.99" cy="14" r="14"/><g><path class="c" d="M12.59,4.1h0c.1,0,.2,.1,.2,.2v.2h.2c.1,0,.2,.1,.2,.2h0c0,.1-.1,.2-.2,.2h-.2v.2c0,.1-.1,.2-.2,.2h0c-.1,0-.2-.1-.2-.2v-.2h-.2c-.1,0-.2-.1-.2-.2h0c0-.1,.1-.2,.2-.2h.2v-.2c0-.1,.1-.2,.2-.2Z"/><path class="c" d="M18.89,4.8h0c.1,0,.1,.2,0,.3l-.1,.2,.2,.1c.1,.1,.1,.2,0,.3h0c-.1,.1-.2,.1-.3,0l-.2-.1-.1,.2c-.1,.1-.2,.1-.3,0h0c-.1-.1-.1-.2,0-.3l.1-.2-.2-.1v-.3h0c.1-.1,.2-.1,.3,0l.2,.1,.1-.2c.1-.1,.2-.1,.3,0Z"/><path class="c" d="M22.69,13.2h0c.1,0,.2,.1,.2,.2v.2h.2c.1,0,.2,.1,.2,.2h0c0,.1-.1,.2-.2,.2h-.2v.2c0,.1-.1,.2-.2,.2h0c-.1,0-.2-.1-.2-.2v-.2h-.2c-.1,0-.2-.1-.2-.2h0c0-.1,.1-.2,.2-.2h.2v-.2c0-.1,.1-.2,.2-.2Z"/><path class="c" d="M5.29,9h0c.1,.1,.1,.2,0,.2l-.1,.1,.1,.1q.1,.1,0,.2h0q-.1,.1-.2,0l-.1-.1-.1,.1q-.1,.1-.2,0h0c-.1-.1-.1-.2,0-.2l.1-.1-.1-.1c0-.1-.1-.2,0-.2h0q.1-.1,.2,0l.1,.1,.1-.1c.1-.1,.2-.1,.2,0Z"/><path class="c" d="M9.69,13.3h0c.1,0,.2,.1,.2,.2v.2h.2c.1,0,.2,.1,.2,.2h0c0,.1-.1,.2-.2,.2h-.2v.2c0,.1-.1,.2-.2,.2h0c-.1,0-.2-.1-.2-.2v-.2h-.2c-.1,0-.2-.1-.2-.2h0c0-.1,.1-.2,.2-.2h.2v-.2c0-.1,.1-.2,.2-.2Z"/><path class="c" d="M6.79,20.2h0c.2,0,.3,.2,.3,.3v.4h.3c.2,0,.3,.1,.3,.3h0c0,.2-.2,.3-.3,.3h-.3v.4c0,.2-.1,.3-.3,.3h0c-.2,0-.4-.1-.4-.3v-.4h-.3c-.2,0-.3-.1-.3-.3h0c0-.2,.1-.3,.3-.3h.3v-.4c0-.1,.2-.2,.4-.3Z"/><path class="c" d="M15.29,22.9h0c.1,.1,.1,.2,0,.3l-.1,.2,.2,.1c.1,.1,.1,.2,0,.3h0c-.1,.1-.2,.1-.3,0l-.1-.2-.1,.2c-.1,.1-.2,.1-.3,0h0c-.1-.1-.1-.2,0-.3l.1-.2-.2-.1c-.1-.1-.1-.2,0-.3h0c.1-.1,.2-.1,.3,0l.2,.1,.1-.2s.1,0,.2,.1Z"/><path class="c" d="M5.59,5.8h0c.1,.1,.1,.2,0,.3l-.1,.2,.2,.1c.1,.1,.1,.2,0,.3h0c-.1,.1-.2,.1-.3,0l-.1-.1-.2,.2s-.1,.1-.2,0h0c-.1-.1-.1-.2,0-.3l.1-.2-.2-.1c-.1-.1-.1-.2,0-.3h0s.2-.1,.2,0l.2,.1,.1-.2h.3Z"/><path class="c" d="M10.59,5.7h0c.2,0,.3,.1,.3,.3v.3h.3c.2,0,.3,.1,.3,.3h0c0,.2-.1,.3-.3,.3h-.3v.4c0,.2-.1,.3-.3,.3h0c-.2,0-.3-.1-.3-.3v-.4l-.4,.1c-.1,0-.3-.1-.3-.3h0c0-.2,.1-.3,.3-.3h.3v-.3c.1-.3,.2-.4,.4-.4Z"/><path class="c" d="M11.89,10.3h0c.1,0,.2,.1,.2,.2v.2h.2c.1,0,.1,.1,.1,.1h0c0,.1-.1,.1-.1,.1h-.2v.2c0,.1-.1,.1-.1,.2h0c-.1,0-.2-.1-.2-.2v-.2h-.1c-.1,0-.1-.1-.1-.1h0c0-.1,.1-.1,.1-.1h.2v-.2c-.2-.1-.1-.2,0-.2Z"/><path class="c" d="M15.39,13.8h0c.1,.1,.1,.2,0,.3l-.1,.2,.2,.1c.1,.1,.1,.2,0,.3h0c-.1,.1-.2,.1-.3,0l-.2-.2-.1,.2c-.1,.1-.2,.1-.3,0h0c-.1-.1-.1-.2,0-.3l.2-.2-.2-.1c-.1-.1-.1-.2,0-.3h0c.1-.1,.2-.1,.3,0l.2,.1,.1-.2c-.1,0,.1,0,.2,.1Z"/><path class="c" d="M22.89,16.5h0c.1,.1,.1,.3,0,.5l-.3,.2,.2,.2c.1,.1,.1,.3,0,.4h0c-.1,.1-.3,.1-.4,0l-.2-.2-.3,.2c-.1,.1-.3,.1-.4,0h0c-.1-.1-.1-.3,0-.5l.3-.2-.2-.2c-.1-.1-.1-.3,0-.4h0c.1-.1,.3-.1,.4,0l.2,.2,.2-.2c.1-.2,.3-.2,.5,0Z"/><path class="c" d="M13.49,18.3h0c.1,0,.2,.1,.2,.2v.2h.2c.1,0,.2,.1,.2,.2h0c0,.1-.1,.2-.2,.2h-.2v.2c0,.1-.1,.2-.2,.2h0c-.1,0-.2-.1-.2-.2v-.2h-.2c-.1,0-.2-.1-.2-.2h0c0-.1,.1-.2,.2-.2h.2v-.2c0-.1,.1-.2,.2-.2Z"/><path class="c" d="M18.49,21.3h0c.2,0,.3,.1,.3,.3v.3h.3c.2,0,.3,.1,.3,.3h0c0,.2-.1,.3-.3,.3h-.3v.4c0,.2-.1,.3-.3,.3h0c-.2,0-.3-.1-.3-.3v-.4h-.3c-.2,0-.3-.1-.3-.3h0c0-.2,.1-.3,.3-.3h.3v-.3c0-.1,.1-.3,.3-.3Z"/><rect class="c" x="7.23" y="4.64" width=".8" height="3.6" transform="translate(.39 13.33) rotate(-83.75)"/><rect class="c" x="10.79" y="7.88" width=".8" height="2.3" transform="translate(-2.27 3.98) rotate(-18.34)"/><rect class="c" x="12.73" y="11.19" width=".8" height="3.1" transform="translate(-5.16 13.17) rotate(-45.47)"/><rect class="c" x="17.92" y="13.07" width=".8" height="5.8" transform="translate(-3.36 26.95) rotate(-67.94)"/><rect class="c" x="18.37" y="19.48" width="3.8" height=".8" transform="translate(-7.65 25.04) rotate(-54.91)"/><polygon class="c" points="17.19 22.1 13.99 19.7 14.39 19.1 17.59 21.5 17.19 22.1"/><rect class="c" x="12.87" y="16.33" width="2.8" height=".7" transform="translate(-6.02 25.07) rotate(-71.94)"/></g></g><g><path class="b" d="M52.75,20.58c0,.12-.09,.21-.26,.26-.21,.05-.86,.08-1.95,.08-1,0-1.64-.03-1.93-.08-.24-.05-.39-.21-.45-.47-.24-1.01-.42-1.54-.56-1.61-.11-.05-1.05-.07-2.81-.07-1.19,0-1.82,.03-1.9,.1-.12,.11-.25,.48-.4,1.12-.13,.58-.29,.89-.48,.94-.24,.05-1.03,.08-2.39,.08-1.07,0-1.6-.1-1.6-.3,0-.18,.79-2.41,2.37-6.7,1.71-4.63,2.64-7.18,2.79-7.64,.08-.27,.18-.4,.29-.4,.19,0,.48,.02,.88,.05,.39,.04,.69,.05,.89,.05s.47-.01,.83-.04,.64-.04,.82-.04c.13,0,.25,.12,.37,.35,.34,.73,1.34,3.25,3,7.55,1.66,4.33,2.49,6.58,2.49,6.77Zm-7.43-9.55c-.15,.31-.39,.97-.74,2-.38,1.09-.57,1.73-.57,1.92,0,.13,.21,.19,.63,.21,.22,.02,.57,.02,1.07,.02,.46,0,.72-.05,.77-.17,.01-.03,.02-.08,.02-.15,0-.23-.16-.87-.48-1.91-.31-1.01-.54-1.65-.69-1.93Z"/><path class="b" d="M59.88,12.37c0,.07-.05,.16-.16,.28-.2-.05-.39-.07-.59-.07-.41,0-.76,.09-1.04,.27-.34,.21-.5,.51-.5,.89,0,.24,.18,.56,.53,.93,.54,.57,.87,.95,1,1.14,.36,.53,.53,1.1,.53,1.71,0,.36-.07,.73-.21,1.13-.16,.44-.36,.76-.61,.96-.52,.45-1.12,.82-1.81,1.13-.75,.32-1.44,.48-2.06,.48-.14,0-.45-.38-.94-1.14-.49-.76-.73-1.22-.73-1.39,0-.06,.04-.1,.12-.12,.49-.09,.98-.18,1.48-.27,.61-.2,.92-.52,.92-.96,0-.31-.18-.66-.53-1.07-.64-.71-.97-1.08-1-1.12-.36-.5-.53-1.03-.53-1.59,0-1.05,.53-1.94,1.59-2.67,.95-.65,1.97-.97,3.05-.97,.11,0,.39,.38,.83,1.13,.44,.75,.66,1.19,.66,1.32Z"/><path class="b" d="M68.4,17.78c0,.21-.03,.53-.08,.95s-.08,.74-.08,.94-.02,.33-.06,.38-.16,.14-.35,.24c-.9,.5-1.9,.74-3,.74-2.02,0-3.03-.77-3.03-2.32,0-.46,.02-1.15,.05-2.08s.05-1.62,.05-2.08c0-.31-.18-.46-.53-.46h-.14c-.06,0-.11,.01-.14,.01-.27,0-.4-.09-.4-.28,0-.11,0-.28,.03-.51,.02-.23,.03-.4,.03-.51,0-.15,0-.37-.03-.67-.02-.3-.03-.52-.03-.67,0-.14,.22-.22,.67-.23,.25,0,.39-.08,.41-.21,.04-.27,.06-.68,.04-1.26-.03-.9-.04-1.33-.04-1.29,0-.81,.08-1.22,.23-1.22,.19,0,.46,.04,.81,.13,.4,.09,.67,.14,.83,.16,.36,.05,.89,.12,1.61,.2,.17,.01,.26,.07,.26,.18,0,.28-.02,.7-.07,1.27-.04,.57-.07,.99-.07,1.28,0,.34,.1,.51,.3,.51,.24,0,.61-.01,1.11-.03,.5-.02,.87-.03,1.12-.03,.15,0,.23,.05,.23,.16,0,.16-.02,.4-.05,.72s-.05,.56-.05,.72,0,.41,.01,.73,.01,.57,.01,.73c0,.15-.1,.22-.3,.22-.14,0-.37,0-.7-.02-.33-.01-.56-.02-.7-.02h-.79c-.11,0-.16,.15-.16,.46v.74c0,.34,0,.58,0,.74,0,.59,.07,.99,.2,1.21,.19,.3,.56,.45,1.11,.45,.17,0,.42-.04,.75-.12s.55-.12,.69-.12c.15,0,.22,.08,.22,.23Z"/><path class="b" d="M76.44,14.32c0,.27-.15,.41-.45,.41-.13,0-.33,0-.58-.03s-.45-.03-.57-.03c-.58,0-.97,.09-1.18,.27-.21,.18-.31,.55-.31,1.1,0,.3,0,.76,.02,1.37,0,.61,.02,1.07,.02,1.37,0,.2,.01,.5,.04,.91,.03,.4,.04,.7,.04,.9,0,.17-.12,.26-.35,.28-.33,.03-.85,.04-1.54,.04s-1.2-.02-1.59-.06c-.23-.03-.35-.14-.35-.35,0-.56,0-1.4,.01-2.51,0-1.12,.01-1.95,.01-2.51,0-1.64-.15-2.99-.45-4.06-.01-.06-.02-.12-.02-.16,0-.1,.05-.17,.16-.21,.38-.04,.95-.12,1.69-.23,1.1-.22,1.67-.33,1.71-.33,.13,0,.21,.22,.24,.66s.1,.66,.19,.66c-.1,0,.19-.18,.86-.55,.67-.37,1.32-.55,1.94-.55,.39,0,.59,.08,.59,.25,0,.2-.02,.49-.06,.86-.04,.4-.07,.68-.07,.86,0,.2,0,.47,.01,.81,.01,.41,.02,.68,.02,.82Z"/><path class="b" d="M87.75,15.69c0,1.59-.49,2.88-1.46,3.88s-2.25,1.49-3.84,1.49-2.8-.49-3.79-1.47-1.49-2.24-1.49-3.77c0-1.62,.47-2.94,1.42-3.95,.95-1.01,2.24-1.51,3.86-1.51s2.86,.49,3.83,1.48c.98,.99,1.47,2.27,1.47,3.85Zm-3.44,0c0-.55-.17-1.04-.51-1.46-.34-.42-.79-.63-1.33-.63s-1.01,.22-1.36,.65c-.34,.41-.5,.89-.5,1.45s.17,1.05,.5,1.46c.36,.43,.81,.65,1.36,.65s1-.22,1.35-.65c.33-.41,.49-.89,.49-1.46Z"/><path class="b" d="M92.83,14.54c0,1.91,0,3.37,.02,4.39,0,.16,0,.44,.03,.83,.02,.36,.03,.63,.03,.83,0,.15-.09,.23-.26,.26-.31,.05-.88,.08-1.7,.08s-1.37-.03-1.6-.08c-.15-.04-.24-.13-.26-.28v-.45c0-.62,0-1.55,.02-2.79,.01-1.24,.02-2.17,.02-2.78,0-2.93,0-4.27,.01-4.01-.02-1.54-.11-2.88-.26-3.99-.01-.08-.02-.14-.02-.18,0-.15,.09-.23,.27-.23h3.74c.17,0,.25,.07,.24,.22v.19c-.19,3.02-.28,5.69-.28,8.01Z"/><path class="b" d="M104.83,15.69c0,1.59-.49,2.88-1.46,3.88s-2.25,1.49-3.84,1.49-2.8-.49-3.79-1.47-1.49-2.24-1.49-3.77c0-1.62,.48-2.94,1.43-3.95,.95-1.01,2.24-1.51,3.86-1.51s2.86,.49,3.84,1.48c.98,.99,1.47,2.27,1.47,3.85Zm-3.44,0c0-.55-.17-1.04-.51-1.46-.34-.42-.79-.63-1.33-.63s-1.01,.22-1.36,.65c-.33,.41-.5,.89-.5,1.45s.17,1.05,.5,1.46c.36,.43,.81,.65,1.36,.65s1-.22,1.35-.65c.33-.41,.49-.89,.49-1.46Z"/><path class="b" d="M116.54,18.12c0,1.99-.42,3.42-1.26,4.29-.87,.89-2.31,1.33-4.32,1.33-.59,0-1.39-.1-2.4-.28-1.29-.24-1.94-.52-1.94-.84,0-.13,.15-.82,.45-2.05,.05-.2,.13-.29,.23-.29,.03,0,.07,.02,.12,.04,1.08,.53,2.07,.8,2.99,.8,.5,0,1-.12,1.5-.38,.6-.3,.9-.68,.9-1.13v-.7c-.71,.67-1.63,1.01-2.75,1.01-1.31,0-2.39-.47-3.24-1.42-.82-.91-1.23-2.03-1.23-3.35s.39-2.44,1.17-3.32c.82-.92,1.89-1.37,3.21-1.37,1.05,0,1.86,.38,2.42,1.13,.11,.15,.19,.23,.23,.23,.06,0,.09-.13,.09-.38,0-.56,.06-.84,.19-.84,.11,0,.72,.06,1.81,.17,1.1,.12,1.67,.18,1.71,.19,.12,.04,.18,.13,.18,.27,0,.48-.02,1.2-.05,2.16s-.05,1.68-.05,2.16c0,.29,0,.71,0,1.29,0,.57,.01,1,.01,1.29Zm-3.63-2.9c0-.51-.17-.95-.51-1.32-.34-.37-.76-.56-1.27-.56s-.93,.19-1.27,.57-.51,.83-.51,1.34,.17,.95,.52,1.32c.35,.37,.77,.56,1.26,.56s.93-.19,1.27-.57,.51-.82,.51-1.33Z"/><path class="b" d="M128.65,13.37c0,1.36-.04,2.18-.12,2.47-.11,.35-.87,1.62-2.3,3.79-.22,.34-.8,1.13-1.73,2.38-1.03,1.37-1.61,2.09-1.75,2.17-.17,.11-1.24,.16-3.22,.16-.3,0-.5-.04-.61-.11-.09-.29-.21-.62-.35-1.02-.11-.24-.22-.49-.33-.74-.16-.36-.24-.61-.24-.72,0-.13,.06-.2,.18-.2,1.94,0,2.91-.45,2.91-1.33,0-.08-.48-.77-1.43-2.09-.98-1.35-1.53-2.2-1.62-2.56-.06-.2-.08-.93-.08-2.17,0-.25,0-.63,.02-1.14,.01-.51,.02-.89,.02-1.14,0-.18,.12-.27,.35-.27,.36,0,.9,0,1.62,.03,.72,.02,1.26,.03,1.62,.03,.15,0,.22,.11,.22,.33,0,.2-.01,.49-.03,.88-.02,.4-.03,.69-.03,.89,0,.88,.01,1.48,.04,1.79,.02,.25,.23,.7,.63,1.36,.42,.69,.72,1.04,.91,1.04,.16,0,.43-.34,.82-1.03,.36-.65,.55-1.09,.58-1.31,.07-.62,.1-1.28,.1-2,0-.19-.02-.47-.05-.86-.04-.38-.05-.67-.05-.87,0-.13,.07-.2,.22-.2,.36,0,.89-.01,1.6-.04,.71-.03,1.24-.04,1.6-.04,.18,0,.3,.09,.37,.27,.1,.32,.15,1.07,.15,2.23Z"/></g></svg>