<?xml version="1.0" encoding="utf-8"?>
<!-- Generator: Adobe Illustrator 26.1.0, SVG Export Plug-In . SVG Version: 6.00 Build 0)  -->
<svg version="1.1" id="Layer_1" xmlns="http://www.w3.org/2000/svg" xmlns:xlink="http://www.w3.org/1999/xlink" x="0px" y="0px"
	 viewBox="0 0 129 28" style="enable-background:new 0 0 129 28;" xml:space="preserve">
<style type="text/css">
	.st0{fill-rule:evenodd;clip-rule:evenodd;fill:#333232;}
	.st1{opacity:0.428;fill:#FFFFFF;enable-background:new    ;}
	.st2{fill:#FFFFFF;}
	.st3{fill:#333232;}
	.st4{font-family:'BerlinSansFBDemi-Bold';}
	.st5{font-size:21.4632px;}
</style>
<g>
	<g>
		<circle class="st0" cx="14" cy="14" r="14"/>
		<g>
			<path class="st1" d="M12.6,4.1L12.6,4.1c0.1,0,0.2,0.1,0.2,0.2l0,0.2l0.2,0c0.1,0,0.2,0.1,0.2,0.2v0c0,0.1-0.1,0.2-0.2,0.2
				l-0.2,0l0,0.2c0,0.1-0.1,0.2-0.2,0.2l0,0c-0.1,0-0.2-0.1-0.2-0.2l0-0.2l-0.2,0c-0.1,0-0.2-0.1-0.2-0.2v0c0-0.1,0.1-0.2,0.2-0.2
				l0.2,0l0-0.2C12.4,4.2,12.5,4.1,12.6,4.1z"/>
			<path class="st1" d="M18.9,4.8L18.9,4.8C19,4.8,19,5,18.9,5.1l-0.1,0.2L19,5.4c0.1,0.1,0.1,0.2,0,0.3l0,0c-0.1,0.1-0.2,0.1-0.3,0
				l-0.2-0.1l-0.1,0.2c-0.1,0.1-0.2,0.1-0.3,0v0c-0.1-0.1-0.1-0.2,0-0.3l0.1-0.2l-0.2-0.1C18,5.1,18,5,18,4.9v0
				c0.1-0.1,0.2-0.1,0.3,0L18.5,5l0.1-0.2C18.7,4.7,18.8,4.7,18.9,4.8z"/>
			<path class="st1" d="M22.7,13.2L22.7,13.2c0.1,0,0.2,0.1,0.2,0.2l0,0.2l0.2,0c0.1,0,0.2,0.1,0.2,0.2l0,0c0,0.1-0.1,0.2-0.2,0.2
				l-0.2,0l0,0.2c0,0.1-0.1,0.2-0.2,0.2l0,0c-0.1,0-0.2-0.1-0.2-0.2l0-0.2l-0.2,0c-0.1,0-0.2-0.1-0.2-0.2l0,0c0-0.1,0.1-0.2,0.2-0.2
				l0.2,0l0-0.2C22.5,13.3,22.6,13.2,22.7,13.2z"/>
			<path class="st1" d="M5.3,9L5.3,9c0.1,0.1,0.1,0.2,0,0.2L5.2,9.3l0.1,0.1c0.1,0.1,0.1,0.1,0,0.2l0,0c-0.1,0.1-0.1,0.1-0.2,0
				L5,9.5L4.9,9.6c-0.1,0.1-0.1,0.1-0.2,0l0,0c-0.1-0.1-0.1-0.2,0-0.2l0.1-0.1L4.7,9.2C4.7,9.1,4.6,9,4.7,9v0c0.1-0.1,0.1-0.1,0.2,0
				L5,9.1L5.1,9C5.2,8.9,5.3,8.9,5.3,9z"/>
			<path class="st1" d="M9.7,13.3L9.7,13.3c0.1,0,0.2,0.1,0.2,0.2l0,0.2l0.2,0c0.1,0,0.2,0.1,0.2,0.2v0c0,0.1-0.1,0.2-0.2,0.2
				l-0.2,0l0,0.2c0,0.1-0.1,0.2-0.2,0.2l0,0c-0.1,0-0.2-0.1-0.2-0.2l0-0.2l-0.2,0c-0.1,0-0.2-0.1-0.2-0.2v0c0-0.1,0.1-0.2,0.2-0.2
				l0.2,0l0-0.2C9.5,13.4,9.6,13.3,9.7,13.3z"/>
			<path class="st1" d="M6.8,20.2L6.8,20.2c0.2,0,0.3,0.2,0.3,0.3l0,0.4l0.3,0c0.2,0,0.3,0.1,0.3,0.3v0c0,0.2-0.2,0.3-0.3,0.3
				l-0.3,0l0,0.4c0,0.2-0.1,0.3-0.3,0.3h0c-0.2,0-0.4-0.1-0.4-0.3l0-0.4l-0.3,0c-0.2,0-0.3-0.1-0.3-0.3l0,0c0-0.2,0.1-0.3,0.3-0.3
				l0.3,0l0-0.4C6.4,20.4,6.6,20.3,6.8,20.2z"/>
			<path class="st1" d="M15.3,22.9L15.3,22.9c0.1,0.1,0.1,0.2,0,0.3l-0.1,0.2l0.2,0.1c0.1,0.1,0.1,0.2,0,0.3l0,0
				c-0.1,0.1-0.2,0.1-0.3,0L15,23.6l-0.1,0.2c-0.1,0.1-0.2,0.1-0.3,0l0,0c-0.1-0.1-0.1-0.2,0-0.3l0.1-0.2l-0.2-0.1
				c-0.1-0.1-0.1-0.2,0-0.3l0,0c0.1-0.1,0.2-0.1,0.3,0l0.2,0.1l0.1-0.2C15.1,22.8,15.2,22.8,15.3,22.9z"/>
			<path class="st2" d="M5.6,5.8L5.6,5.8c0.1,0.1,0.1,0.2,0,0.3L5.5,6.3l0.2,0.1c0.1,0.1,0.1,0.2,0,0.3l0,0c-0.1,0.1-0.2,0.1-0.3,0
				L5.3,6.6L5.1,6.8C5.1,6.8,5,6.9,4.9,6.8l0,0c-0.1-0.1-0.1-0.2,0-0.3L5,6.3L4.8,6.2C4.7,6.1,4.7,6,4.8,5.9v0C4.8,5.9,5,5.8,5,5.9
				L5.2,6l0.1-0.2C5.4,5.8,5.5,5.8,5.6,5.8z"/>
			<path class="st2" d="M10.6,5.7L10.6,5.7c0.2,0,0.3,0.1,0.3,0.3l0,0.3l0.3,0c0.2,0,0.3,0.1,0.3,0.3v0c0,0.2-0.1,0.3-0.3,0.3
				l-0.3,0l0,0.4c0,0.2-0.1,0.3-0.3,0.3h0c-0.2,0-0.3-0.1-0.3-0.3l0-0.4L9.9,7C9.8,7,9.6,6.9,9.6,6.7v0c0-0.2,0.1-0.3,0.3-0.3l0.3,0
				l0-0.3C10.3,5.8,10.4,5.7,10.6,5.7z"/>
			<path class="st2" d="M11.9,10.3L11.9,10.3c0.1,0,0.2,0.1,0.2,0.2l0,0.2l0.2,0c0.1,0,0.1,0.1,0.1,0.1l0,0c0,0.1-0.1,0.1-0.1,0.1
				l-0.2,0l0,0.2c0,0.1-0.1,0.1-0.1,0.2l0,0c-0.1,0-0.2-0.1-0.2-0.2l0-0.2l-0.1,0c-0.1,0-0.1-0.1-0.1-0.1v0c0-0.1,0.1-0.1,0.1-0.1
				l0.2,0l0-0.2C11.7,10.4,11.8,10.3,11.9,10.3z"/>
			<path class="st2" d="M15.4,13.8L15.4,13.8c0.1,0.1,0.1,0.2,0,0.3l-0.1,0.2l0.2,0.1c0.1,0.1,0.1,0.2,0,0.3l0,0
				c-0.1,0.1-0.2,0.1-0.3,0L15,14.5l-0.1,0.2c-0.1,0.1-0.2,0.1-0.3,0l0,0c-0.1-0.1-0.1-0.2,0-0.3l0.2-0.2l-0.2-0.1
				c-0.1-0.1-0.1-0.2,0-0.3v0c0.1-0.1,0.2-0.1,0.3,0l0.2,0.1l0.1-0.2C15.1,13.7,15.3,13.7,15.4,13.8z"/>
			<path class="st2" d="M22.9,16.5L22.9,16.5c0.1,0.1,0.1,0.3,0,0.5l-0.3,0.2l0.2,0.2c0.1,0.1,0.1,0.3,0,0.4l0,0
				c-0.1,0.1-0.3,0.1-0.4,0l-0.2-0.2l-0.3,0.2c-0.1,0.1-0.3,0.1-0.4,0h0c-0.1-0.1-0.1-0.3,0-0.5l0.3-0.2l-0.2-0.2
				c-0.1-0.1-0.1-0.3,0-0.4l0,0c0.1-0.1,0.3-0.1,0.4,0l0.2,0.2l0.2-0.2C22.5,16.3,22.7,16.3,22.9,16.5z"/>
			<path class="st2" d="M13.5,18.3L13.5,18.3c0.1,0,0.2,0.1,0.2,0.2l0,0.2l0.2,0c0.1,0,0.2,0.1,0.2,0.2l0,0c0,0.1-0.1,0.2-0.2,0.2
				l-0.2,0l0,0.2c0,0.1-0.1,0.2-0.2,0.2l0,0c-0.1,0-0.2-0.1-0.2-0.2l0-0.2l-0.2,0c-0.1,0-0.2-0.1-0.2-0.2v0c0-0.1,0.1-0.2,0.2-0.2
				l0.2,0l0-0.2C13.3,18.4,13.4,18.3,13.5,18.3z"/>
			<path class="st2" d="M18.5,21.3L18.5,21.3c0.2,0,0.3,0.1,0.3,0.3l0,0.3l0.3,0c0.2,0,0.3,0.1,0.3,0.3v0c0,0.2-0.1,0.3-0.3,0.3
				l-0.3,0l0,0.4c0,0.2-0.1,0.3-0.3,0.3l0,0c-0.2,0-0.3-0.1-0.3-0.3l0-0.4l-0.3,0c-0.2,0-0.3-0.1-0.3-0.3l0,0c0-0.2,0.1-0.3,0.3-0.3
				l0.3,0l0-0.3C18.2,21.5,18.3,21.3,18.5,21.3z"/>
			<g>
				<rect x="7.3" y="4.7" transform="matrix(0.1089 -0.9941 0.9941 0.1089 0.3424 13.3908)" class="st2" width="0.8" height="3.6"/>
			</g>
			<g>
				
					<rect x="10.8" y="7.9" transform="matrix(0.9492 -0.3147 0.3147 0.9492 -2.2779 3.9669)" class="st2" width="0.8" height="2.3"/>
			</g>
			<g>
				
					<rect x="12.7" y="11.2" transform="matrix(0.7013 -0.7129 0.7129 0.7013 -5.1315 13.1354)" class="st2" width="0.8" height="3.1"/>
			</g>
			<g>
				
					<rect x="18" y="13.1" transform="matrix(0.3755 -0.9268 0.9268 0.3755 -3.4094 27.0126)" class="st2" width="0.8" height="5.8"/>
			</g>
			<g>
				
					<rect x="18.4" y="19.5" transform="matrix(0.5749 -0.8182 0.8182 0.5749 -7.6721 25.0513)" class="st2" width="3.8" height="0.8"/>
			</g>
			<g>
				<polygon class="st2" points="17.2,22.1 14,19.7 14.4,19.1 17.6,21.5 				"/>
			</g>
			<g>
				<rect x="12.9" y="16.3" transform="matrix(0.31 -0.9507 0.9507 0.31 -5.9823 25.1158)" class="st2" width="2.8" height="0.7"/>
			</g>
		</g>
	</g>
	<text transform="matrix(1 0 0 1 37.9744 20.8452)" class="st3 st4 st5">Astrology</text>
</g>
</svg>
